<svg xmlns="http://www.w3.org/2000/svg" width="200" height="200" fill="none">
  <path d="M45 0C25 18 10 50 15 80s30 45 55 50 55-10 70-35 15-55 5-75S65-18 45 0z" stroke="rgba(255,255,255,0.10)" stroke-width="1"/>
  <path d="M50 15C35 30 22 55 27 78s25 38 45 42 45-8 58-28 12-45 4-62S65 2 50 15z" stroke="rgba(255,255,255,0.08)" stroke-width="1"/>
  <path d="M55 32C44 42 35 60 38 76s20 30 36 33 36-6 47-22 10-36 3-50S66 22 55 32z" stroke="rgba(255,255,255,0.06)" stroke-width="1"/>
  <path d="M155 200C175 182 190 150 185 120s-30-45-55-50-55 10-70 35-15 55-5 75S135 218 155 200z" stroke="rgba(255,255,255,0.10)" stroke-width="1"/>
  <path d="M150 185C165 170 178 145 173 122s-25-38-45-42-45 8-58 28-12 45-4 62S135 198 150 185z" stroke="rgba(255,255,255,0.08)" stroke-width="1"/>
  <path d="M145 168C156 158 165 140 162 124s-20-30-36-33-36 6-47 22-10 36-3 50S134 178 145 168z" stroke="rgba(255,255,255,0.06)" stroke-width="1"/>
</svg>
